<svg id="visual" viewBox="0 0 1920 1080" width="1920" height="1080" xmlns="http://www.w3.org/2000/svg" xmlns:xlink="http://www.w3.org/1999/xlink" version="1.1"><rect x="0" y="0" width="1920" height="1080" fill="#110021"></rect><path d="M661 0L676.3 30C691.7 60 722.3 120 731.7 180C741 240 729 300 731.3 360C733.7 420 750.3 480 744.3 540C738.3 600 709.7 660 686.2 720C662.7 780 644.3 840 656.7 900C669 960 712 1020 733.5 1050L755 1080L0 1080L0 1050C0 1020 0 960 0 900C0 840 0 780 0 720C0 660 0 600 0 540C0 480 0 420 0 360C0 300 0 240 0 180C0 120 0 60 0 30L0 0Z" fill="#5c0dab"></path><path d="M502 0L532.2 30C562.3 60 622.7 120 649.3 180C676 240 669 300 648.2 360C627.3 420 592.7 480 592.2 540C591.7 600 625.3 660 619.8 720C614.3 780 569.7 840 571.7 900C573.7 960 622.3 1020 646.7 1050L671 1080L0 1080L0 1050C0 1020 0 960 0 900C0 840 0 780 0 720C0 660 0 600 0 540C0 480 0 420 0 360C0 300 0 240 0 180C0 120 0 60 0 30L0 0Z" fill="#b5008d"></path><path d="M488 0L485.3 30C482.7 60 477.3 120 459 180C440.7 240 409.3 300 410.7 360C412 420 446 480 469.5 540C493 600 506 660 484.8 720C463.7 780 408.3 840 388.2 900C368 960 383 1020 390.5 1050L398 1080L0 1080L0 1050C0 1020 0 960 0 900C0 840 0 780 0 720C0 660 0 600 0 540C0 480 0 420 0 360C0 300 0 240 0 180C0 120 0 60 0 30L0 0Z" fill="#e2006b"></path><path d="M252 0L274 30C296 60 340 120 363 180C386 240 388 300 385.5 360C383 420 376 480 367.7 540C359.3 600 349.7 660 338.3 720C327 780 314 840 319 900C324 960 347 1020 358.5 1050L370 1080L0 1080L0 1050C0 1020 0 960 0 900C0 840 0 780 0 720C0 660 0 600 0 540C0 480 0 420 0 360C0 300 0 240 0 180C0 120 0 60 0 30L0 0Z" fill="#fa2144"></path><path d="M102 0L116.3 30C130.7 60 159.3 120 158.7 180C158 240 128 300 115.5 360C103 420 108 480 111.7 540C115.3 600 117.7 660 124.3 720C131 780 142 840 151.5 900C161 960 169 1020 173 1050L177 1080L0 1080L0 1050C0 1020 0 960 0 900C0 840 0 780 0 720C0 660 0 600 0 540C0 480 0 420 0 360C0 300 0 240 0 180C0 120 0 60 0 30L0 0Z" fill="#ff5100"></path></svg>